<svg width="22" height="15" viewBox="0 0 22 15" fill="none" xmlns="http://www.w3.org/2000/svg">
<path d="M2.8373 0H19.3998C20.9623 0 21.7498 0.7375 21.7498 2.2375V12.7625C21.7498 14.25 20.9623 15 19.3998 15H2.8373C1.2748 15 0.487305 14.25 0.487305 12.7625V2.2375C0.487305 0.7375 1.2748 0 2.8373 0ZM11.1123 10.75L19.5373 3.8375C19.8373 3.5875 20.0748 3.0125 19.6998 2.5C19.3373 1.9875 18.6748 1.975 18.2373 2.2875L11.1123 7.1125L3.9998 2.2875C3.5623 1.975 2.8998 1.9875 2.5373 2.5C2.1623 3.0125 2.3998 3.5875 2.6998 3.8375L11.1123 10.75Z" fill="black"/>
</svg>
