<svg width="15" height="17" viewBox="0 0 15 17" fill="none" xmlns="http://www.w3.org/2000/svg">
<path d="M7.5 16.4166C7.99028 16.4172 8.46857 16.2651 8.86839 15.9813C9.26821 15.6975 9.56969 15.2963 9.73092 14.8333H5.26908C5.43032 15.2963 5.7318 15.6975 6.13161 15.9813C6.53143 16.2651 7.00972 16.4172 7.5 16.4166V16.4166ZM13.0417 10.5472V6.91659C13.0417 4.36979 11.3119 2.22438 8.96854 1.57917C8.73658 0.994919 8.16975 0.583252 7.5 0.583252C6.83025 0.583252 6.26342 0.994919 6.03146 1.57917C3.68813 2.22517 1.95833 4.36979 1.95833 6.91659V10.5472L0.606959 11.8985C0.5333 11.9719 0.474885 12.0592 0.435076 12.1552C0.395267 12.2513 0.37485 12.3543 0.375001 12.4583V13.2499C0.375001 13.4599 0.458408 13.6612 0.606875 13.8097C0.755341 13.9582 0.956704 14.0416 1.16667 14.0416H13.8333C14.0433 14.0416 14.2447 13.9582 14.3931 13.8097C14.5416 13.6612 14.625 13.4599 14.625 13.2499V12.4583C14.6252 12.3543 14.6047 12.2513 14.5649 12.1552C14.5251 12.0592 14.4667 11.9719 14.393 11.8985L13.0417 10.5472Z" fill="black"/>
</svg>
