<svg width="19" height="19" viewBox="0 0 19 19" fill="none" xmlns="http://www.w3.org/2000/svg">
<path d="M16.554 15.3603C17.4965 14.2264 18.152 12.8822 18.465 11.4413C18.7781 10.0005 18.7395 8.50544 18.3526 7.08266C17.9657 5.65989 17.2418 4.35123 16.2421 3.2674C15.2424 2.18357 13.9964 1.35645 12.6095 0.856012C11.2226 0.355576 9.7355 0.196543 8.2741 0.392368C6.81271 0.588193 5.41998 1.13311 4.21372 1.98104C3.00747 2.82896 2.02318 3.95493 1.34412 5.26371C0.665062 6.57248 0.311212 8.02556 0.312504 9.50002C0.312999 11.6435 1.06834 13.7182 2.44597 15.3603L2.43285 15.3715C2.47878 15.4266 2.53128 15.4739 2.57853 15.5283C2.6376 15.5959 2.70125 15.6596 2.76228 15.7252C2.94603 15.9247 3.13503 16.1163 3.33322 16.2961C3.3936 16.3513 3.45594 16.4025 3.51697 16.455C3.72697 16.6361 3.94288 16.808 4.16666 16.9681C4.19553 16.9878 4.22178 17.0134 4.25066 17.0338V17.0259C5.78767 18.1075 7.62123 18.688 9.50066 18.688C11.3801 18.688 13.2137 18.1075 14.7507 17.0259V17.0338C14.7795 17.0134 14.8051 16.9878 14.8347 16.9681C15.0578 16.8074 15.2743 16.6361 15.4843 16.455C15.5454 16.4025 15.6077 16.3506 15.6681 16.2961C15.8663 16.1157 16.0553 15.9247 16.239 15.7252C16.3001 15.6596 16.3631 15.5959 16.4228 15.5283C16.4694 15.4739 16.5225 15.4266 16.5685 15.3708L16.554 15.3603ZM9.5 4.25002C10.0841 4.25002 10.655 4.42321 11.1407 4.74771C11.6263 5.0722 12.0048 5.53342 12.2283 6.07303C12.4519 6.61264 12.5103 7.20642 12.3964 7.77927C12.2824 8.35212 12.0012 8.87831 11.5882 9.29132C11.1752 9.70432 10.649 9.98558 10.0761 10.0995C9.50328 10.2135 8.9095 10.155 8.36989 9.93147C7.83028 9.70796 7.36906 9.32945 7.04457 8.84381C6.72008 8.35817 6.54688 7.78721 6.54688 7.20314C6.54688 6.41992 6.85801 5.66878 7.41183 5.11497C7.96565 4.56115 8.71679 4.25002 9.5 4.25002V4.25002ZM4.2546 15.3603C4.26598 14.4987 4.61616 13.6761 5.22936 13.0706C5.84257 12.4652 6.6695 12.1255 7.53125 12.125H11.4688C12.3305 12.1255 13.1574 12.4652 13.7706 13.0706C14.3839 13.6761 14.734 14.4987 14.7454 15.3603C13.3061 16.6573 11.4374 17.3751 9.5 17.3751C7.56258 17.3751 5.69386 16.6573 4.2546 15.3603V15.3603Z" fill="black"/>
</svg>
